<svg xmlns="http://www.w3.org/2000/svg" viewBox="0 0 351 64" class="ms-1 ms-xl-0 d-none d-md-block" width="176" height="32" loading="eager">
  <g>
    <polygon points="72.3 63.68 46.56 36.37 39.51 40.53 32.87 26.19 .14 63.63 36.21 0 72.3 63.68" fill="#68ffad" fill-rule="evenodd"></polygon>
    <polygon points="39.51 40.53 .04 63.82 .14 63.63 32.87 26.19 39.51 40.53" fill="#d6ffec" fill-rule="evenodd"></polygon>
    <polygon points="72.42 63.89 50.31 63.89 39.51 40.53 46.56 36.37 72.3 63.68 72.42 63.89" fill="#ff6005" fill-rule="evenodd"></polygon>
    <polygon points="50.31 63.89 0 63.89 .04 63.82 39.51 40.53 50.31 63.89" fill="#80f" fill-rule="evenodd"></polygon>
    <g>
      <path d="m153.06,49.59c3.85-1.61,6.38-5.35,6.45-9.52-.23-6.04-5.3-10.76-11.35-10.56h-16.06v34.47h4.74v-13.36h11.47l6.22,13.36h5.24l-6.71-14.4Zm-1.97-4.23c-.82.35-1.7.52-2.59.52h-11.69v-11.63h11.69c3.33-.11,6.12,2.49,6.24,5.82-.04,2.34-1.48,4.43-3.65,5.29h0Z" fill="#1B1D1F" fill-rule="evenodd"></path>
      <polygon points="295.51 29.52 300.25 29.52 300.25 63.99 295.51 63.99 295.51 29.52 295.51 29.52" fill="#1B1D1F" fill-rule="evenodd"></polygon>
      <path d="m285.27,46.75c0,4.73-1.93,9.25-5.37,12.5-.24.23-.5.46-.76.68l-2.1-4.52c4.78-4.98,4.62-12.89-.35-17.67-2.33-2.24-5.43-3.49-8.66-3.49h-7.76v24.99h7.76c1.75,0,3.48-.36,5.07-1.07l2,4.3c-2.22,1-4.63,1.52-7.06,1.51h-12.5V29.52h12.5c9.52,0,17.23,7.72,17.24,17.24h0Z" fill="#1B1D1F" fill-rule="evenodd"></path>
      <path d="m197.31,54.15l2.2,4.7c-6.68,6.79-17.59,6.88-24.38.2-6.79-6.68-6.88-17.59-.2-24.38,6.68-6.79,17.59-6.88,24.38-.2.07.07.13.13.2.2l-2.2,4.7c-4.08-5.57-11.9-6.78-17.47-2.7-5.57,4.08-6.78,11.9-2.7,17.47,4.08,5.57,11.9,6.78,17.47,2.7,1.03-.76,1.94-1.67,2.7-2.7Z" fill="#1B1D1F" fill-rule="evenodd"></path>
      <polygon points="121.86 63.99 116.63 63.99 104.09 37.2 91.55 63.99 86.32 63.99 101.47 31.61 102.45 29.52 105.73 29.52 106.71 31.61 121.86 63.99" fill="#1B1D1F" fill-rule="evenodd"></polygon>
      <polygon points="245.3 63.99 240.06 63.99 227.53 37.2 214.99 63.99 209.76 63.99 224.91 31.61 225.89 29.52 229.16 29.52 230.14 31.61 245.3 63.99" fill="#1B1D1F" fill-rule="evenodd"></polygon>
      <polygon points="346.03 63.99 340.79 63.99 328.26 37.2 315.72 63.99 310.48 63.99 325.64 31.61 326.62 29.52 329.89 29.52 330.87 31.61 346.03 63.99" fill="#1B1D1F" fill-rule="evenodd"></polygon>
    </g>
  </g>
  <g>
    <path d="m344.07,31.67h1.91c.85,0,1.56.66,1.56,1.51,0,.7-.37,1.23-.97,1.44l1.39,2.14h-1.03l-1.26-2.04h-.75v2.04h-.85v-5.08Zm1.88,2.23c.42,0,.73-.31.73-.72s-.31-.69-.73-.69h-1.03v1.41h1.03Z" fill="#1B1D1F"></path>
    <path d="m345.67,39.07c-2.64,0-4.78-2.14-4.78-4.78s2.14-4.78,4.78-4.78,4.78,2.14,4.78,4.78-2.14,4.78-4.78,4.78Zm0-9.03c-2.35,0-4.25,1.91-4.25,4.25s1.91,4.25,4.25,4.25,4.25-1.91,4.25-4.25-1.91-4.25-4.25-4.25Z" fill="#1B1D1F"></path>
  </g>
</svg>
