<svg xmlns="http://www.w3.org/2000/svg" viewBox="0 0 1015.866 208.624"><g fill="#AE291F"><path d="m418.167 5.32c3.615 3.547 5.424 7.895 5.424 13.04s-1.809 9.492-5.424 13.039c-3.618 3.547-8 5.32-13.144 5.32s-9.493-1.773-13.039-5.32c-3.547-3.547-5.32-7.892-5.32-13.039s1.774-9.493 5.32-13.04c3.546-3.547 7.891-5.32 13.039-5.32s9.526 1.773 13.144 5.32zm-27.644 146.981h29.209v-106.402h-29.209zm210.06-109.532c-6.091 0-11.367.955-15.856 2.83v-41.844h-29.208v148.546h29.208v-78.654c4.45-2.223 8.9-3.338 13.353-3.338 3.892 0 6.917 1.252 9.075 3.755 2.155 2.503 3.234 5.982 3.234 10.432v67.805h29.208v-68.223c0-12.655-3.618-22.705-10.849-30.148-7.233-7.439-16.622-11.162-28.165-11.162zm85.485-39.014h-29.209v102.647c0 15.996 3.997 27.852 11.997 35.572 7.996 7.719 19.784 11.579 35.363 11.579v-30.043c-6.816 0-11.546-1.32-14.187-3.964-2.643-2.641-3.964-7.231-3.964-13.77v-32.755h18.36v-27.122h-18.36zm35.341 46.039v102.438l29.17.069v-73.021h21.489v-27.122h-21.489v-3.338c0-6.676 1.878-11.612 5.633-14.813 3.755-3.198 9.665-4.799 17.734-4.799v-29.208c-16.831 0-29.974 4.277-39.431 12.831-9.46 8.554-13.106 20.83-13.106 36.963zm82.479-49.794c-5.147 0-9.492 1.773-13.039 5.32s-5.32 7.896-5.32 13.04 1.773 9.492 5.32 13.039 7.892 5.32 13.039 5.32 9.526-1.773 13.144-5.32c3.615-3.547 5.424-7.892 5.424-13.039s-1.809-9.493-5.424-13.04c-3.619-3.547-8-5.32-13.144-5.32zm-14.5 152.301h29.208v-106.402h-29.208zm70.443-106.819c-5.705 1.252-10.259 1.982-13.666 2.191-3.41.208-6.969-.45-10.307-1.982v106.611h29.188v-77.194c1.946-1.389 4.101-2.504 6.468-3.338 2.363-.835 4.726-1.252 7.093-1.252 4.867 0 9.248 1.043 13.144 3.13v-28.582c-4.453-1.669-9.18-2.503-14.187-2.503-4.73 0-10.64.975-17.733 2.921zm-518.509 0c-5.705 1.252-10.259 1.982-13.666 2.191-3.41.208-6.969-.45-10.307-1.982v106.611h29.188v-77.194c1.946-1.389 4.101-2.504 6.468-3.338 2.363-.835 4.726-1.252 7.093-1.252 4.867 0 9.248 1.043 13.144 3.13v-28.582c-4.453-1.669-9.18-2.503-14.187-2.503-4.73 0-10.64.975-17.733 2.921zm-285.586 106.803c-35.817-23.645-38.278-54.815-17.526-81.907 15.151-19.78 29.696-38.15 26.899-65.842-36.837 5.447-65.109 37.188-65.109 75.541 0 36.528 25.651 67.049 59.918 74.577-1.439-.713-2.835-1.494-4.156-2.369h-.025zm20.639-148.583c-.858 0-1.707.037-2.558.065 27.255 23.196 38.387 42.235 46.353 61.764 9.503 23.298 9.289 46.803 3.122 60.212-4.853 10.552-13.17 18.753-23.434 25.97h-.009c-1.032.725-2.118 1.381-3.229 2.005 32.351-8.875 56.129-38.473 56.129-73.641-0-42.181-34.194-76.375-76.374-76.375zm20.333 108.416c-8.37-10.928-16.373-20.994-12.714-37.44-17.407 13.523-23.818 24.116-28.265 35.017-4.751 11.649-4.645 23.401-1.561 30.105 2.427 5.276 6.585 9.376 11.717 12.985h.005c2.161 1.518 4.688 2.595 7.427 3.126-.287-.151-.576-.297-.843-.474h-.006c-8.954-5.911-9.569-13.703-4.381-20.476 4.185-5.464 8.186-10.497 6.357-18.72 8.703 6.762 11.909 12.058 14.132 17.508 2.376 5.824 2.322 11.701.781 15.053-1.187 2.582-3.208 4.599-5.698 6.375 1.527-.534 2.966-1.237 4.276-2.105h.013c17.908-11.822 19.138-27.407 8.763-40.952zm878.569 11.601c6.745-3.198 13.108-7.648 19.09-13.352v32.964c-6.259 4.173-13.007 7.338-20.237 9.493-7.234 2.155-14.467 3.234-21.698 3.234-10.712 0-20.273-2.399-28.687-7.198-8.417-4.799-14.953-11.475-19.611-20.029-4.662-8.554-6.99-18.392-6.99-29.522 0-10.986 2.191-20.759 6.572-29.312 4.381-8.554 10.536-15.23 18.464-20.029s17.108-7.198 27.539-7.198c9.18 0 17.558 1.878 25.14 5.633 7.58 3.755 13.594 9.493 18.047 17.212 4.45 7.719 6.813 17.075 7.094 28.061l-71.347 20.882c1.104 2.132 2.439 4.088 4.063 5.823 5.076 5.424 12.133 8.137 21.176 8.137 7.511 0 14.637-1.597 21.385-4.799zm-50.081-28.505 44.379-13.679c-1.025-2.602-2.588-4.891-4.729-6.845-3.964-3.615-8.799-5.425-14.5-5.425-7.791 0-13.946 2.504-18.464 7.511-4.013 4.444-6.234 10.598-6.685 18.437zm-382.985-52.653c-3.297 9.455-5.542 23.886-5.722 35.779l.111 76.244-.04 9.191c-.298 8.031-2.559 15.727-6.757 22.318-4.522 7.093-10.64 12.622-18.36 16.586-7.719 3.964-16.309 5.946-25.766 5.946-1.588 0-3.168-.025-4.776-.168-4.326-.48-8.653-1.442-12.98-2.877-6.495-2.155-12.558-5.32-18.18-9.493v-32.964c5.374 5.705 11.09 10.155 17.15 13.352 4.805 2.537 10.214 4.61 16.283 4.61 6.954 0 14.092-1.809 18.128-5.425 4.032-3.619 6.05-8.137 6.05-13.561l.04-7.515v-5.576c-1.157.937-2.406 1.782-3.754 2.531-5.626 3.128-12.02 4.693-19.184 4.693-9.334 0-17.841-2.47-25.514-7.404-7.674-4.937-13.684-11.716-18.033-20.335-4.346-8.623-6.522-18.286-6.522-28.991 0-10.846 2.206-20.58 6.619-29.2 4.412-8.623 10.521-15.402 18.32-20.336 7.803-4.934 16.498-7.404 26.09-7.404s21.244 3.532 26.276 10.235l1.314-10.235h29.208zm-32.818 56.939c0-8.483-2.236-15.401-6.714-20.753-4.475-5.354-10.231-8.03-17.266-8.03s-12.757 2.675-17.169 8.03c-4.412 5.351-6.618 12.27-6.618 20.753s2.206 15.362 6.618 20.648c4.412 5.283 10.138 7.926 17.169 7.926s12.79-2.643 17.266-7.926c4.478-5.286 6.714-12.168 6.714-20.648zm-215.722-29.374c4.346 8.623 6.522 18.286 6.522 28.991 0 10.846-2.206 20.58-6.619 29.2-4.412 8.623-10.521 15.402-18.32 20.336-7.802 4.934-16.498 7.404-26.09 7.404s-21.244-3.532-26.276-10.235l-.802 6.479h-29.208c3.297-9.455 5.031-20.131 5.211-32.023l-.111-116.523h29.208v45.855c1.157-.937 2.406-1.782 3.754-2.531 5.626-3.128 12.02-4.693 19.184-4.693 9.334 0 17.841 2.47 25.514 7.404 7.674 4.937 13.684 11.716 18.033 20.335zm-20.718 28.991c0-8.48-2.206-15.362-6.618-20.648-4.412-5.283-10.138-7.926-17.169-7.926s-12.79 2.643-17.265 7.926c-4.478 5.286-6.714 12.169-6.714 20.648s2.236 15.402 6.714 20.753c4.475 5.354 10.231 8.03 17.265 8.03s12.757-2.675 17.169-8.03c4.412-5.351 6.618-12.27 6.618-20.753z"></path><path d="m1011.471 26.195c-3.002 3.002-6.549 4.639-10.915 4.639s-7.913-1.637-10.915-4.639-4.366-6.549-4.366-10.915c0-4.093 1.364-7.913 4.366-10.915 3.002-3.001 6.549-4.365 10.915-4.365s7.913 1.364 10.915 4.366 4.366 6.549 4.366 10.915c.273 4.366-1.364 7.913-4.366 10.915zm-20.193-20.192c-2.456 2.456-3.82 5.73-3.82 9.277 0 3.82 1.364 6.822 3.82 9.55s5.73 3.82 9.277 3.82 6.822-1.364 9.277-3.82c2.456-2.729 3.82-5.73 3.82-9.55 0-3.547-1.364-6.822-3.82-9.277-2.456-2.729-5.73-3.82-9.277-3.82s-6.549 1.364-9.277 3.82zm9.005.819c2.183 0 3.547.273 4.639.546 1.637.819 2.729 2.183 2.729 4.366 0 1.637-.546 2.729-1.637 3.274-.546.273-1.364.546-2.456.819 1.364.273 2.183.819 3.002 1.637.546.819.819 1.637.819 2.729v2.729s0 .819.273.819v.273h-2.729v-2.456c0-1.91-.546-3.274-1.637-3.82-.546-.273-1.637-.546-3.274-.546h-2.456v6.549h-3.002v-16.919h5.73zm3.274 2.728c-.819-.546-1.91-.546-3.547-.546h-2.456v6.003h2.729c1.364 0 2.183 0 2.729-.273 1.091-.546 1.637-1.364 1.637-2.729 0-1.091-.273-1.91-1.091-2.456z"></path></g></svg>
