<svg width="151" height="39" viewBox="0 0 151 39" fill="none" xmlns="http://www.w3.org/2000/svg">
<g id="Logo Full Color">
<g id="Group">
<path id="Vector" opacity="0.75" d="M17.6795 10.3469L26.4467 24.6011L35.2865 38.8553H17.6795H0L8.83973 24.6011L17.6795 10.3469Z" fill="#13487D"/>
<path id="Vector_2" opacity="0.75" d="M31.0838 0L39.9235 19.4638L48.7632 38.8553H31.0838H13.4043L22.244 19.4638L31.0838 0Z" fill="#1C75BC"/>
<path id="Vector_3" opacity="0.75" d="M24.3453 5.57153L33.185 22.2135L42.0247 38.8554H24.3453H6.73828L15.578 22.2135L24.3453 5.57153Z" fill="#6DCFF6"/>
</g>
<g id="Group_2">
<path id="Vector_4" d="M53.9802 5.57129H52.9658V17.9442H53.9802V5.57129Z" fill="black"/>
<path id="Vector_5" d="M63.7619 12.1557C65.6458 11.8663 66.7327 10.7086 66.7327 8.89968C66.7327 6.8737 65.2835 5.57129 62.8925 5.57129H57.3857V17.9442H58.4001V12.2281H62.5302L66.5153 17.8718V17.9442H67.7471L63.7619 12.1557ZM58.4001 6.51192H62.82C64.6314 6.51192 65.6458 7.38019 65.6458 8.89968C65.6458 10.4192 64.6314 11.2874 62.82 11.2874H58.4001V6.51192Z" fill="black"/>
<path id="Vector_6" d="M75.2829 5.35425C71.7325 5.35425 69.124 8.10379 69.124 11.7216C69.124 15.3394 71.8049 18.0889 75.2829 18.0889C78.7608 18.0889 81.4417 15.3394 81.4417 11.7216C81.4417 8.10379 78.8332 5.35425 75.2829 5.35425ZM75.2829 17.1483C72.3846 17.1483 70.1384 14.8329 70.1384 11.7216C70.1384 8.68264 72.3121 6.36724 75.2829 6.36724C78.1811 6.36724 80.3548 8.68264 80.3548 11.7216C80.4273 14.8329 78.2536 17.1483 75.2829 17.1483Z" fill="black"/>
<path id="Vector_7" d="M93.2522 16.0629L85.1371 5.57129H84.2676V17.9442H85.282V7.38019L93.3971 17.8718V17.9442H94.2666V5.57129H93.2522V16.0629Z" fill="black"/>
<path id="Vector_8" d="M58.4729 32.5601L53.8357 26.4822H52.8213V38.7827H53.8357V28.1464L58.1106 33.7178H58.1831H58.7627L63.0377 28.1464V38.7827H64.1246V26.4822H63.1102L58.4729 32.5601Z" fill="black"/>
<path id="Vector_9" d="M73.0368 26.2651C69.4864 26.2651 66.8779 29.0147 66.8779 32.6325C66.8779 36.2503 69.5588 38.9998 73.0368 38.9998C76.5147 38.9998 79.1956 36.2503 79.1956 32.6325C79.1956 29.0147 76.5871 26.2651 73.0368 26.2651ZM73.0368 38.0592C70.1385 38.0592 67.8923 35.7438 67.8923 32.6325C67.8923 29.5935 70.066 27.2781 73.0368 27.2781C75.935 27.2781 78.1087 29.5935 78.1087 32.6325C78.1087 35.7438 75.935 38.0592 73.0368 38.0592Z" fill="black"/>
<path id="Vector_10" d="M90.7167 33.5008C90.7167 36.3227 89.2675 37.9869 86.804 37.9869C84.3405 37.9869 82.8913 36.3227 82.8913 33.5008V26.4099H81.877V33.5008C81.877 36.9016 83.7608 38.9999 86.8765 38.9999C89.9197 38.9999 91.876 36.9016 91.876 33.5008V26.4099H90.8616V33.5008H90.7167Z" fill="black"/>
<path id="Vector_11" d="M103.831 36.9738L95.7162 26.4822H94.8467V38.7827H95.8611V28.2911L103.976 38.7827H104.846V26.4822H103.831V36.9738Z" fill="black"/>
<path id="Vector_12" d="M116.728 26.4822H106.946V27.4228H111.366V38.7827H112.381V27.4228H116.728V26.4822Z" fill="black"/>
<path id="Vector_13" d="M122.307 26.4099H121.366L115.786 38.7105L115.714 38.8552H116.801L118.395 35.3097H125.133L126.727 38.8552H127.814L122.307 26.4099ZM124.771 34.2967H118.83L121.8 27.7847L124.771 34.2967Z" fill="black"/>
<path id="Vector_14" d="M131.003 26.4822H129.988V38.8551H131.003V26.4822Z" fill="black"/>
<path id="Vector_15" d="M143.392 36.9738L135.349 26.4822H134.407V38.7827H135.494V28.2911L143.537 38.7827H143.609H144.479V26.4822H143.392V36.9738Z" fill="black"/>
<path id="Vector_16" d="M148.682 25.6863C147.45 25.6863 146.363 26.6993 146.363 28.0017C146.363 29.3041 147.378 30.3171 148.682 30.3171C149.986 30.3171 151.001 29.3041 151.001 28.0017C151.001 26.7716 149.986 25.6863 148.682 25.6863ZM148.682 29.9553C147.595 29.9553 146.726 29.087 146.726 28.0017C146.726 26.9163 147.595 26.0481 148.682 26.0481C149.769 26.0481 150.638 26.9163 150.638 28.0017C150.638 29.087 149.769 29.9553 148.682 29.9553Z" fill="black"/>
<path id="Vector_17" d="M149.696 27.4953C149.696 27.0612 149.407 26.7717 148.899 26.7717H147.812V29.2318H148.247V28.2189H148.827L149.551 29.2318H150.059L149.262 28.1465C149.551 28.0018 149.696 27.7847 149.696 27.4953ZM148.247 27.1335H148.899C149.044 27.1335 149.262 27.2059 149.262 27.4229C149.262 27.64 149.117 27.7124 148.899 27.7124H148.247V27.1335Z" fill="black"/>
</g>
</g>
</svg>
