<svg xmlns="http://www.w3.org/2000/svg" width="100%" height="100%" viewBox="0 0 115 25" fill="none" preserveAspectRatio="xMidYMid meet" aria-hidden="true" role="img">
<path d="M3.47919 23.6777H0V1.12733H3.47919V12.7569H3.54362L14.5933 1.12733H19.1034L9.40671 11.0495L19.2322 23.6777H14.8832L7.08725 13.3689H6.9906L3.47919 17.0736V23.6777Z" fill="currentColor"></path>
<path d="M24.5698 23.6777H21.2517V6.60384H24.4732V8.50451H24.5376C25.8584 7.02263 28.1134 6.12062 30.4973 6.12062C35.3617 6.12062 38.6477 9.11659 38.6477 13.5622V23.6777H35.3295V14.1099C35.3295 10.9851 33.3322 9.05216 30.2074 9.05216C26.8248 9.05216 24.5698 11.1783 24.5698 14.1743V23.6777Z" fill="currentColor"></path>
<path d="M51.1228 24.1609C45.6785 24.1609 41.7483 20.2951 41.7483 15.1408C41.7483 9.98639 45.6785 6.12062 51.1228 6.12062C56.5671 6.12062 60.5295 9.98639 60.5295 15.1408C60.5295 20.2951 56.5671 24.1609 51.1228 24.1609ZM51.1228 21.2293C54.6987 21.2293 57.2114 18.8132 57.2114 15.1408C57.2114 11.4683 54.6987 9.05216 51.1228 9.05216C47.5792 9.05216 45.0664 11.4683 45.0664 15.1408C45.0664 18.8132 47.5792 21.2293 51.1228 21.2293Z" fill="currentColor"></path>
<path d="M74.3023 6.60384V9.43874H68.8258V19.1676C68.8258 20.2951 69.2446 20.6817 70.6621 20.6817H73.497V23.6777H70.501C66.9252 23.6777 65.5077 22.3569 65.5077 19.232V9.43874H61.7064V6.60384H65.5077V2.60921H68.8258V6.60384H74.3023Z" fill="currentColor"></path>
<path d="M84.8446 24.1609C79.497 24.1609 75.599 20.3273 75.599 15.1408C75.599 9.95418 79.497 6.12062 84.8446 6.12062C89.1614 6.12062 92.6406 8.50451 93.6071 12.2092L90.45 13.079C89.6446 10.4052 87.6151 9.05216 84.8446 9.05216C81.3654 9.05216 78.9171 11.4361 78.9171 15.1408C78.9171 18.8132 81.3654 21.2293 84.8446 21.2293C87.6151 21.2293 89.6446 19.9085 90.45 17.2025L93.6071 18.0401C92.6406 21.777 89.1614 24.1609 84.8446 24.1609Z" fill="currentColor"></path>
<path d="M100.01 23.6777H96.6921V0.160889H100.01V8.50451H100.075C101.428 6.9582 103.554 6.12062 105.938 6.12062C110.802 6.12062 114.088 9.11659 114.088 13.5622V23.6777H110.77V14.1099C110.77 10.9851 108.773 9.05216 105.519 9.05216C102.265 9.05216 100.01 11.1783 100.01 14.1743V23.6777Z" fill="currentColor"></path>
</svg>
