<svg class="hidden w-full h-full lg:block" role="img" viewBox="0 0 983.51 183.16" fill="none" xmlns="http://www.w3.org/2000/svg">
    <title>Logo Wordmark</title>
    <path d="M94.33.63c-1.47-.85-3.87-.85-5.33 0L2.65 50.49C1.19 51.34 0 53.4 0 55.09v99.71c0 1.69 1.19 3.76 2.65 4.62l40.52 23.38c1.46.85 2.66.16 2.66-1.54V75.68c0-1.69 1.19-3.76 2.66-4.6L66.1 60.9c1.46-.85 2.67-.15 2.67 1.53v51.9c0 1.68 1.19 3.76 2.65 4.6l17.57 10.14c1.46.84 3.86.84 5.33 0l17.63-10.18c1.47-.83 2.66-2.91 2.66-4.6V62.47c0-1.69 1.2-2.38 2.65-1.52l17.58 10.14c1.46.85 2.66 2.92 2.66 4.6v105.58c0 1.7 1.19 2.38 2.66 1.54l40.5-23.38c1.46-.85 2.67-2.92 2.67-4.62V55.09c0-1.69-1.21-3.76-2.67-4.6L94.33.63Z" fill="#df6a2e"></path>
    <path d="M343.09 156.2V86.9l-29.88 45.34h-.61l-29.56-44.88v68.84h-22.91V50.04h25.17l27.91 44.88 27.91-44.88h25.17V156.2h-23.2zM424.22 50.04h23.36V156.2h-23.36zM569.95 156.2l-22.75-33.97h-18.34v33.97h-23.35V50.04h48.53c25.01 0 40.02 13.19 40.02 35.03v.31c0 17.13-9.25 27.91-22.75 32.92l25.93 37.91h-27.29Zm.46-69.92c0-10-6.99-15.16-18.36-15.16h-23.2v30.48h23.65c11.38 0 17.91-6.05 17.91-15.01v-.3ZM647.59 50.04h23.37V156.2h-23.37zM780.45 158.02c-32.75 0-56.27-24.42-56.27-54.59v-.29c0-30.19 23.82-54.91 56.57-54.91s56.27 24.42 56.27 54.59v.31c0 30.18-23.82 54.89-56.57 54.89m32.16-54.89c0-18.2-13.35-33.37-32.16-33.37s-31.86 14.86-31.86 33.05v.31c0 18.19 13.34 33.36 32.15 33.36s31.86-14.86 31.86-33.06v-.29ZM963.65 156.2l-51.42-67.49v67.49h-23.05V50.04h21.54l49.74 65.37V50.04h23.05V156.2h-19.86z" fill="#003a5d"></path>
</svg>
