<?xml version="1.0" encoding="utf-8"?>
<!-- Generator: Adobe Illustrator 22.1.0, SVG Export Plug-In . SVG Version: 6.00 Build 0)  -->
<svg version="1.1" id="Layer_1" xmlns="http://www.w3.org/2000/svg" xmlns:xlink="http://www.w3.org/1999/xlink" x="0px" y="0px"
	 viewBox="0 0 257.5 48" style="enable-background:new 0 0 257.5 48;" xml:space="preserve">
<style type="text/css">
	.st0{fill:#004B8D;}
</style>
<g>
	<path class="st0" d="M22.6,15.3h4c2.5,0,5.1,0.5,5.1,3.4c0,2.5-1.6,4.3-6.3,4.3H21L22.6,15.3z M5,43.6h11.6L19,32.1h7.9
		c10,0,16.5-6.6,16.5-14.3c0-8.4-4.5-12.3-11.5-12.3H13L5,43.6z"/>
	<path class="st0" d="M57.7,18.6L57.7,18.6L59.1,30h-7.3L57.7,18.6z M32.6,43.6h12l2.9-5.4h12.4l0.6,5.4H72L66.2,5.5H54.6L32.6,43.6
		z"/>
	<polygon class="st0" points="76.9,29.6 68.7,5.5 80.5,5.5 84.1,19.7 93.4,5.5 107.2,5.5 88.6,29.5 85.7,43.6 74,43.6 	"/>
	<path class="st0" d="M135.2,29.1c-0.7,3.9-3.7,15.4-19.6,15.4c-11.1,0-16.4-7.2-16.4-17.4c0-12.3,7.7-22.6,20.7-22.6
		c8.5,0,16.1,3.7,16.3,15.1h-11.1c0.1-3.6-1.6-5.6-5.2-5.6c-6.5,0-8.9,7.5-8.9,12.9c0,3.2,0.8,8,6.2,8c3.7,0,5.8-2.5,6.5-5.9
		L135.2,29.1L135.2,29.1z"/>
	<polygon class="st0" points="142,5.5 153.8,5.5 151,18.7 161.7,18.7 164.5,5.5 176.3,5.5 168.3,43.6 156.6,43.6 159.7,28.5 
		149,28.5 145.8,43.6 134.1,43.6 	"/>
	<polygon class="st0" points="179.4,5.5 210.9,5.5 208.9,15.3 189.1,15.3 188.1,20 206.5,20 204.6,29.1 186.2,29.1 185.2,33.8 
		205.4,33.8 203.4,43.6 171.4,43.6 	"/>
	<polygon class="st0" points="219,23.4 210.2,5.5 223,5.5 226.7,15.4 234.3,5.5 248.2,5.5 232.3,23.4 241.6,43.6 228.4,43.6 
		224.2,33 215.3,43.6 200.9,43.6 	"/>
	<path class="st0" d="M249.7,7.2c0-1.4,1-2.5,2.4-2.5c1.3,0,2.4,1.1,2.4,2.5s-1,2.5-2.4,2.5C250.8,9.7,249.7,8.6,249.7,7.2
		 M249.2,7.2c0,1.7,1.3,2.9,2.9,2.9c1.6,0,2.9-1.2,2.9-2.9c0-1.6-1.3-2.9-2.9-2.9S249.2,5.6,249.2,7.2 M251,8.9h0.5V7.5h0.5l0.9,1.5
		h0.6l-1-1.5c0.5,0,0.9-0.3,0.9-0.9c0-0.7-0.4-1-1.2-1H251V8.9z M251.5,6h0.7c0.4,0,0.7,0.1,0.7,0.5c0,0.5-0.4,0.6-0.9,0.6h-0.5V6z"
		/>
</g>
</svg>
