<svg xmlns="http://www.w3.org/2000/svg" width="155.034" height="29.229" viewBox="0 0 155.034 29.229"><defs><style>.a{fill:#f4364c;}.b{fill:#3c539a;}.c{fill:#008eaa;}.d{fill:#646569;}</style></defs><g transform="translate(-36.295 -9.726)"><g transform="translate(36.295 9.726)"><path class="a" d="M54.8,10.618v0a.907.907,0,0,0-.12-.428v0h0a.912.912,0,0,0-1.581,0h0L43.961,26,37.274,37.586l0,0a.918.918,0,0,1,.312-.319l0,0,13.642-8.293,3.927-2.387Z" transform="translate(-37.152 -9.726)"></path><path class="b" d="M68.413,174.092h0l-14-7.669-4.031-2.207-13.642,8.293,0,0a.918.918,0,0,0-.312.319l0,0h0a.912.912,0,0,0,.791,1.369H68.85A.909.909,0,0,1,68.413,174.092Z" transform="translate(-36.295 -144.974)"></path><path class="c" d="M192.829,40.8h0L177.009,13.4v0a.906.906,0,0,1,.12.428v0l.361,15.962.1,4.595,14,7.669h0a.913.913,0,0,0,1.229-1.257Z" transform="translate(-159.483 -12.941)"></path></g><path class="d" d="M366.011,70.061H371.5c3.311,0,5.49,1.76,5.49,4.652v.042c0,3.163-2.64,4.8-5.762,4.8h-3.562v5.175h-1.655Zm5.28,7.983c2.431,0,4.023-1.3,4.023-3.227v-.042c0-2.095-1.571-3.185-3.939-3.185h-3.708v6.454Z" transform="translate(-288.65 -52.82)"></path><path class="d" d="M503.6,70.061h6.307a5.782,5.782,0,0,1,4.17,1.467,4.051,4.051,0,0,1,1.131,2.891v.042c0,2.431-1.676,3.855-3.981,4.275l4.5,5.992H513.7l-4.253-5.7h-4.19v5.7H503.6Zm6.16,7.48c2.2,0,3.772-1.132,3.772-3.017v-.042c0-1.8-1.383-2.891-3.751-2.891h-4.525v5.95Z" transform="translate(-409.103 -52.82)"></path><path class="d" d="M651.622,70.061h1.655V84.728h-1.655Z" transform="translate(-538.688 -52.82)"></path><path class="d" d="M716.882,81.119l1.026-1.215a6.985,6.985,0,0,0,5.029,2.074c1.969,0,3.268-1.048,3.268-2.494v-.042c0-1.362-.733-2.137-3.813-2.786-3.373-.733-4.924-1.823-4.924-4.233v-.042c0-2.3,2.032-4,4.819-4a7.654,7.654,0,0,1,5.155,1.8l-.964,1.278a6.44,6.44,0,0,0-4.232-1.592c-1.907,0-3.122,1.047-3.122,2.368v.042c0,1.383.754,2.158,3.981,2.849,3.268.712,4.777,1.907,4.777,4.149v.042c0,2.514-2.1,4.149-5.008,4.149A8.581,8.581,0,0,1,716.882,81.119Z" transform="translate(-595.82 -51.349)"></path><path class="d" d="M857.5,70.061h1.676l5.343,8,5.343-8h1.677V84.728h-1.655V72.848L864.544,80.7h-.084l-5.343-7.836V84.728H857.5Z" transform="translate(-718.928 -52.82)"></path><path class="b" d="M1026.212,70.061h3.227v5.8h5.95v-5.8h3.227V84.728h-3.227V78.84h-5.95v5.888h-3.227Z" transform="translate(-866.623 -52.82)"></path><path class="b" d="M1179.28,70.061h6.7a5.842,5.842,0,0,1,4.274,1.488,4.6,4.6,0,0,1,1.257,3.352v.042a4.555,4.555,0,0,1-3.143,4.547l3.583,5.238h-3.772l-3.143-4.694h-2.535v4.694h-3.227Zm6.5,7.124c1.572,0,2.473-.838,2.473-2.074v-.042c0-1.383-.964-2.095-2.535-2.095h-3.206v4.211Z" transform="translate(-1000.627 -52.82)"></path></g></svg>